<svg width="114" height="30" viewBox="0 0 114 30" fill="none" xmlns="http://www.w3.org/2000/svg">
<g clip-path="url(#clip0_151_474)">
<path d="M44.8645 23.5H37.0885V22.516L39.3445 20.692V6.628L36.8005 5.836L37.4005 4.636H45.1765V5.62L42.8965 7.444V21.484L45.4645 22.3L44.8645 23.5Z" fill="#1E293B"/>
<path d="M64.6709 7.444V23.5H63.0389L51.7109 9.7V21.028L54.5909 22.3L53.9909 23.5H47.8229V22.516L50.0789 20.692V7.228L47.5349 5.836L48.1349 4.636H51.9989L63.0389 18.052V7.06L60.1829 5.836L60.7829 4.636H66.9509V5.62L64.6709 7.444Z" fill="#1E293B"/>
<path d="M86.6978 7.468L80.1698 22.732L77.0018 23.956L70.0658 7.18L67.6418 5.836L68.2658 4.636H76.2098V5.62L73.8098 7.3L79.3538 20.74L85.0178 7.396L81.0098 5.836L81.6098 4.636H89.0978V5.62L86.6978 7.468Z" fill="#1E293B"/>
<path d="M109.033 23.452H101.305V22.468L103.201 21.1L98.8808 15.796L94.2728 20.836L97.5128 22.276L96.9128 23.476H89.4248V22.492L92.1608 20.74L97.8488 14.572L91.8728 7.156L89.6168 5.812L90.2168 4.612H97.9208V5.596L96.0008 6.916L100.297 12.22L104.521 7.252L101.257 5.812L101.857 4.612H109.321V5.596L106.801 7.204L101.353 13.492L107.473 21.076L109.633 22.252L109.033 23.452Z" fill="#1E293B"/>
<path d="M26.82 12.4726C28.6374 12.3017 30.1497 13.85 29.936 15.6629C29.7223 17.4757 27.8915 18.63 26.1636 18.0412L21.2502 16.3669C20.4669 16.1 19.9765 15.3222 20.0734 14.5004C20.1702 13.6786 20.828 13.0361 21.6519 12.9586L26.82 12.4726Z" fill="#10B981"/>
<path d="M24.6947 20.6146C25.9784 21.9124 25.7387 24.0634 24.2008 25.0467C22.6629 26.03 20.6098 25.3449 19.9706 23.6351L18.1528 18.7729C17.863 17.9978 18.154 17.1256 18.8512 16.6798C19.5484 16.2341 20.4622 16.3359 21.0442 16.9242L24.6947 20.6146Z" fill="#059669"/>
<path d="M13.9444 5.03913C13.1838 3.37977 11.0867 2.84426 9.62358 3.93575C8.16044 5.02723 8.07621 7.18991 9.45004 8.39188L13.3567 11.8099C13.9795 12.3548 14.8983 12.3906 15.5616 11.8958C16.2249 11.401 16.4524 10.5101 16.1076 9.75783L13.9444 5.03913Z" fill="#059669"/>
<path d="M7.9559 10.9507C6.19015 10.4878 4.44717 11.7709 4.36456 13.5944C4.28194 15.418 5.90175 16.8534 7.70212 16.5521L12.8218 15.6953C13.638 15.5587 14.2478 14.8705 14.2852 14.0439C14.3227 13.2172 13.7776 12.4767 12.9771 12.2669L7.9559 10.9507Z" fill="#10B981"/>
<path d="M16.8367 10.1472C17.4235 8.87148 18.9799 8.37622 20.196 9.07833C21.4121 9.78043 21.7614 11.376 20.9499 12.522L13.2484 23.3986C12.9057 23.8826 12.2508 24.026 11.7372 23.7295C11.2236 23.4329 11.0203 22.7941 11.2681 22.2553L16.8367 10.1472Z" fill="#1E293B"/>
</g>
<defs>
<clipPath id="clip0_151_474">
<rect width="114" height="30" fill="white"/>
</clipPath>
</defs>
</svg>
